<svg xmlns="http://www.w3.org/2000/svg" viewBox="0 0 500 500"><g id="freepik--Floor--inject-10"><path id="freepik--floor--inject-10" d="M80.34,246.79c-93.65,54.07-93.65,141.74,0,195.81s245.5,54.07,339.15,0,93.66-141.74,0-195.81S174,192.72,80.34,246.79Z" style="fill:#fafafa"></path></g><g id="freepik--Plants--inject-10"><g id="freepik--plants--inject-10"><path d="M456.72,202.46c-5.6,1.21-14.17,8.72-17.81,23.36a76.16,76.16,0,0,0-1.28,32.68c1.13.82,2.24,1.64,3.34,2.48l.86.65q1.73,1.33,3.39,2.67l.8.66c.24-2.89.64-6.47,1.31-10.82.24-1.5.5-2.93.77-4.29,4.13-20,13.15-24.69,17.3-33.51C470.07,206.45,463,201.09,456.72,202.46Z" style="fill:#e0e0e0"></path><path d="M458.21,208.16c-8.75,8-18.63,29-16.38,53.47L441,261c-2-24.45,7.92-45.42,16.69-53.41a.4.4,0,0,1,.57,0A.4.4,0,0,1,458.21,208.16Z" style="fill:#fff"></path><path d="M458.69,253.53a44.75,44.75,0,0,0-8,15.4c-.74-.64-1.48-1.29-2.23-1.92l-.76-.64c-.56-.48-1.12-.95-1.7-1.41l-.8-.66a68.78,68.78,0,0,1,3.12-17c2-5.43,5.14-11.46,7.89-14.38,6.83-7.24,14.77-7.92,17.57-2S465.91,244,458.69,253.53Z" style="fill:#f0f0f0"></path><path d="M465.48,235.65c-5.67,3.44-15.3,18.49-17,31.36l-.76-.64c1.91-13.09,11.49-27.85,17.35-31.41a.4.4,0,1,1,.41.69Z" style="fill:#fff"></path></g><g id="freepik--plants--inject-10"><path d="M69.86,253.24c-1.28.84-2.55,1.69-3.79,2.54q-2.34,1.62-4.58,3.25a79.93,79.93,0,0,0-5.93-30.48,54.81,54.81,0,0,0-5.31-9.93c-9.38-13.48-7.74-20.07-2.07-22s20.57,6.56,23,29.21C72.24,235.84,71,246.58,69.86,253.24Z" style="fill:#f0f0f0"></path><path d="M64.33,255.19h-.07a.51.51,0,0,1-.4-.59c4-20.89-3.32-44.35-12.36-54.12a.5.5,0,0,1,0-.71.51.51,0,0,1,.71,0c9.2,9.94,16.64,33.79,12.61,55A.5.5,0,0,1,64.33,255.19Z" style="fill:#fff"></path><path d="M66.84,252.29a17.73,17.73,0,0,1-.77,3.49q-2.34,1.62-4.58,3.25-3.72,2.72-7.16,5.52l-1,.8q-5.44,4.47-10.19,9.14h0c-1.08.55-3.95-1.92-4.75-2.51a10.1,10.1,0,0,1-3.15-4,9.47,9.47,0,0,1-.55-5.69,23.35,23.35,0,0,1,.87-3c.33-1,.66-1.91,1-2.87a7.25,7.25,0,0,0,.58-2.92c-.16-2-1.85-3.49-3.4-4.77-1.71-1.42-3.47-3.27-3.34-5.67a8.47,8.47,0,0,1,2.36-4.92c1.22-1.39,2.65-2.61,3.76-4.09a5.92,5.92,0,0,0,1.4-3.66,6.19,6.19,0,0,0-.7-2.37,34.12,34.12,0,0,1-2.31-4.8c-.5-1.71-.31-3.79,1.06-4.93a5.5,5.5,0,0,1,4.18-.81,9.48,9.48,0,0,1,3.77,1.54c3.7,2.31,5.65,6.93,9.6,8.76a11.87,11.87,0,0,0,2.08.71c.91.25,1.85.44,2.75.73a6.08,6.08,0,0,1,3.9,3c1.33,3-1.6,6.55-.72,9.75.55,2,2,3.19,3.36,4.64a10,10,0,0,1,.92,1.12,6.79,6.79,0,0,1,.54.85A6,6,0,0,1,66.84,252.29Z" style="fill:#e0e0e0"></path><path d="M54.33,264.55l-1,.8c.66-17.94-6.63-37.19-12.43-43.2a.47.47,0,0,1,0-.67.48.48,0,0,1,.67,0C47.43,227.52,54.73,246.6,54.33,264.55Z" style="fill:#fff"></path><path d="M51.73,245.88a.35.35,0,0,1-.14,0A64.17,64.17,0,0,0,38,243a.47.47,0,0,1-.43-.51.46.46,0,0,1,.52-.43A64.07,64.07,0,0,1,51.92,245a.48.48,0,0,1-.19.92Z" style="fill:#fff"></path></g></g><g id="freepik--Shadows--inject-10"><path id="freepik--Shadow--inject-10" d="M234.18,251.07,96,330.86c-2.22,1.28-2.22,3.36,0,4.65l189.84,109.3a8.92,8.92,0,0,0,8.05,0L432.07,365c2.23-1.28,2.23-3.36,0-4.65L242.23,251.07A8.92,8.92,0,0,0,234.18,251.07Z" style="fill:#e0e0e0"></path><path id="freepik--shadow--inject-10" d="M161.69,339.63c25,14.62,25,38.33,0,52.95s-65.64,14.62-90.68,0-25-38.33,0-52.95S136.65,325,161.69,339.63Z" style="fill:#e0e0e0"></path></g><g id="freepik--Lines--inject-10"><path id="freepik--Line--inject-10" d="M48.27,395.84c18.61,13.64,38.27,16.58,59.38,17.56,14,.64,28-.31,41.88-1.71,6.21-.63,12.4-1.37,18.58-2.13,6.68-.83,13.35-1.69,20.09-1.48,4.92.15,10.17.68,14.77,2.93,4.45,2.17,7.44,6.7,5.7,11.75a16.2,16.2,0,0,1-3.81,5.75c-5.26,5.55-11.76,9.35-15.52,16.34-1.28,2.4-2.3,6.27-.93,8.62,3.36,5.74,15,5.73,20.27,5.52,14.67-.6,23.53-2.88,33.43-6.51,15.21-5.59,27.24-14,38.21-22.47,3.26-2.52,6.72-4.81,10-7.37.55-.44.82.86.42,1.21-5.25,4.63-11.07,8.46-16.41,12.92a91.65,91.65,0,0,1-16.1,10.72c-11.4,6-18.29,9.29-31.89,12.17-3.39.72-11.45,1.76-14.91,2a73.76,73.76,0,0,1-17.32-.48c-3.46-.56-8.16-2.67-9.48-6.5-1.5-4.34,0-8.61,2.35-12.37a42.09,42.09,0,0,1,8.6-9.38c2.24-2,5.91-5.06,7.67-7.46,6.65-9.11-3-13.19-10.8-14.07a83.26,83.26,0,0,0-18.2.29c-6,.73-12.31,1.8-18.28,2.47a323.21,323.21,0,0,1-41.13,2.49c-6.73-.08-15.27-.64-22.14-1.4-22.07-2.42-39.93-11.36-47.41-20.37-.83-1-2.1-3.06-1.46-3.4A27,27,0,0,0,48.27,395.84Z" style="fill:#0D6EFD"></path><path id="freepik--line--inject-10" d="M431.92,390.39a23.41,23.41,0,0,0-11.69,3.67,16.21,16.21,0,0,0-5.76,7.4c-2.1,5.08-2,10.41-4.55,15.44s-9.46,9.19-18.82,10.18a36.57,36.57,0,0,1-11.72-.73c5.2-3.87,8.51-8.67,6.13-13.56a11.58,11.58,0,0,0-8.85-6.13c-5-.7-10.2,2.06-12.71,4.26-5.92,5.21-.72,11.92,7.18,15.34.73.32,1.5.6,2.28.87A59.41,59.41,0,0,1,355,434.05a64.67,64.67,0,0,1-25.52.36,53.47,53.47,0,0,1-23.6-11.72c-1.53-1.25-3.08-2.48-4.7-3.69-.62-.46-3.12-.36-2.56.41,4.47,6.18,12.69,12,22.78,15.43,8.54,2.87,18.65,3.43,28.21,2.26a70.94,70.94,0,0,0,24.9-7.63c.79-.43,1.56-.89,2.32-1.36a44.44,44.44,0,0,0,22.89-.73c8.94-2.8,13.53-7.81,15.34-13.42,1.74-5.41,1.41-11.14,5.25-16.27,2.29-3.08,6.42-5.53,12.37-5.95a20.48,20.48,0,0,1,13.15,3.15,9.44,9.44,0,0,1,3.46,4.22c.07.18.82.41.82.11C450,393.81,441,389.79,431.92,390.39Zm-64.3,30c-2.3-2.46-3.32-5.47-1-8.05a12.93,12.93,0,0,1,4.76-3,9,9,0,0,1,3-.8,6.56,6.56,0,0,1,3.05.84c3.49,1.82,5,4.68,4.86,7.34-.16,3-2.39,5.79-5.48,8.18-.24.19-.51.36-.76.55A20.84,20.84,0,0,1,367.62,420.37Z" style="fill:#455a64"></path></g><g id="freepik--Notebook--inject-10"><g id="freepik--notebook--inject-10"><path d="M242.58,252.45,109,322.82l-2.75,4.32v3.48a5,5,0,0,0,2.75,4.32L285.07,436.62a9.79,9.79,0,0,0,9.17,0l130.65-75.43v-3.48Z" style="fill:#263238"></path><path d="M289.66,434.28a9.24,9.24,0,0,1-4.59-1.14L109,331.46a4.77,4.77,0,0,1,0-8.64L236.7,249.06,424.89,357.71,294.24,433.14A9.23,9.23,0,0,1,289.66,434.28Z" style="fill:#0D6EFD"></path><path d="M236.7,238.85,110.4,311.77l-1.3,1.81v13.56h0a2.2,2.2,0,0,0,1.3,1.81L286.52,430.63a6.87,6.87,0,0,0,6.27,0L419.1,357.71V344.16Z" style="fill:#ebebeb"></path><path d="M419.11,344.16l-1.58.91L397,356.94l-3.82,2.21L292.8,417.08a6.93,6.93,0,0,1-6.27,0L110.39,315.39c-1.72-1-1.72-2.63,0-3.63l1.68-1L236.7,238.85l180.84,104.4.38.23Z" style="fill:#f0f0f0"></path><path d="M289.65,417.83v13.56a6.22,6.22,0,0,1-3.12-.76L110.39,328.94a2.19,2.19,0,0,1-1.29-1.81V313.58a2.24,2.24,0,0,0,1.29,1.81L286.53,417.08A6.21,6.21,0,0,0,289.65,417.83Z" style="fill:#e0e0e0"></path><path d="M419.11,342.35l-22.75,13.13-3.56,2-100,57.74a6.93,6.93,0,0,1-6.27,0L128.8,324.21c-1.42-.78-2.74-1.55-4-2.29-6.42-3.91-10.28-7.4-12.76-11.13l-.3-.46a2.41,2.41,0,0,1-.4-.94,2.83,2.83,0,0,1,2.21-3.19,58.18,58.18,0,0,0,11.89-4.95l.16-.09L236.7,237Z" style="fill:#fff"></path><path d="M395.56,340.76c-1.61.94-1.61,2.46,0,3.4a6.44,6.44,0,0,0,5.86,0c1.62-.94,1.62-2.46,0-3.4A6.44,6.44,0,0,0,395.56,340.76Z" style="opacity:0.1"></path><path d="M414.38,329.78c-2.23-1.29-5-1.09-7.88.55-4.41,2.56-8.24,8.27-9.9,14.25a5.73,5.73,0,0,0,2.16.26c1.53-5.33,4.92-10.35,8.83-12.63a7.44,7.44,0,0,1,3.59-1.1,4.27,4.27,0,0,1,2.12.55c1.88,1.09,3,3.74,3,7.26a14.5,14.5,0,0,1-.1,1.74l2.05,1.18a19.33,19.33,0,0,0,.22-2.92C418.44,334.6,417,331.27,414.38,329.78Z" style="fill:#263238"></path><path d="M418,343a3.4,3.4,0,0,1-.1.5l-.38-.23Z" style="fill:#263238"></path><path d="M377.92,330.57c-1.61.94-1.61,2.46,0,3.39a6.42,6.42,0,0,0,5.85,0c1.63-.93,1.63-2.45,0-3.39A6.42,6.42,0,0,0,377.92,330.57Z" style="opacity:0.1"></path><path d="M396.74,319.59c-2.24-1.29-5-1.09-7.89.55-4.41,2.56-8.24,8.27-9.9,14.25a5.94,5.94,0,0,0,2.16.26c1.53-5.33,4.92-10.36,8.83-12.63a7.36,7.36,0,0,1,3.59-1.1,4.27,4.27,0,0,1,2.12.55c1.88,1.08,3,3.74,3,7.25a14.5,14.5,0,0,1-.1,1.74l2.05,1.19a19.46,19.46,0,0,0,.22-2.93C400.79,324.41,399.31,321.08,396.74,319.59Z" style="fill:#263238"></path><path d="M360.26,320.38c-1.61.93-1.61,2.45,0,3.39a6.44,6.44,0,0,0,5.86,0c1.62-.94,1.62-2.46,0-3.39A6.44,6.44,0,0,0,360.26,320.38Z" style="opacity:0.1"></path><path d="M379.08,309.39c-2.23-1.29-5-1.08-7.88.55-4.42,2.57-8.24,8.27-9.91,14.26a6.2,6.2,0,0,0,2.16.26c1.54-5.33,4.93-10.36,8.84-12.63a7.35,7.35,0,0,1,3.59-1.11,4.17,4.17,0,0,1,2.12.56c1.88,1.08,3,3.73,3,7.25a14.5,14.5,0,0,1-.1,1.74l2.06,1.19a21,21,0,0,0,.22-2.93C383.14,314.22,381.66,310.88,379.08,309.39Z" style="fill:#263238"></path><path d="M342.61,310.19c-1.61.93-1.61,2.45,0,3.39a6.44,6.44,0,0,0,5.86,0c1.62-.94,1.62-2.46,0-3.39A6.44,6.44,0,0,0,342.61,310.19Z" style="opacity:0.1"></path><path d="M361.43,299.2c-2.23-1.29-5-1.08-7.88.56-4.42,2.56-8.24,8.27-9.91,14.25a6.2,6.2,0,0,0,2.16.26c1.54-5.33,4.93-10.36,8.84-12.63a7.33,7.33,0,0,1,3.59-1.1,4.2,4.2,0,0,1,2.11.55c1.89,1.08,3,3.73,3,7.25a14.5,14.5,0,0,1-.1,1.74l2.06,1.19a21,21,0,0,0,.22-2.93C365.49,304,364,300.7,361.43,299.2Z" style="fill:#263238"></path><path d="M325,300c-1.61.94-1.61,2.46,0,3.4a6.42,6.42,0,0,0,5.85,0c1.63-.94,1.63-2.46,0-3.4A6.5,6.5,0,0,0,325,300Z" style="opacity:0.1"></path><path d="M343.78,289c-2.23-1.29-5-1.08-7.88.55-4.42,2.57-8.24,8.27-9.91,14.26a6.2,6.2,0,0,0,2.16.26c1.54-5.33,4.92-10.36,8.84-12.63a7.35,7.35,0,0,1,3.59-1.11,4.11,4.11,0,0,1,2.11.56c1.89,1.08,3,3.73,3,7.25a14.5,14.5,0,0,1-.1,1.74l2.06,1.19a20.94,20.94,0,0,0,.21-2.93C347.83,293.84,346.36,290.5,343.78,289Z" style="fill:#263238"></path><path d="M307.3,289.8c-1.61.94-1.61,2.46,0,3.4a6.44,6.44,0,0,0,5.86,0c1.62-.94,1.62-2.46,0-3.4A6.44,6.44,0,0,0,307.3,289.8Z" style="opacity:0.1"></path><path d="M326.12,278.82c-2.23-1.29-5-1.09-7.88.55-4.41,2.57-8.24,8.27-9.9,14.25a5.92,5.92,0,0,0,2.15.27c1.54-5.33,4.93-10.36,8.84-12.64a7.44,7.44,0,0,1,3.59-1.1,4.27,4.27,0,0,1,2.12.55c1.88,1.09,3,3.74,3,7.26a14.5,14.5,0,0,1-.1,1.74l2,1.19a19.56,19.56,0,0,0,.22-2.93C330.18,283.64,328.7,280.31,326.12,278.82Z" style="fill:#263238"></path><path d="M289.65,279.61c-1.6.94-1.6,2.46,0,3.4a6.44,6.44,0,0,0,5.86,0c1.62-.94,1.62-2.46,0-3.4A6.44,6.44,0,0,0,289.65,279.61Z" style="opacity:0.1"></path><path d="M308.47,268.63c-2.23-1.29-5-1.09-7.88.55-4.41,2.56-8.24,8.27-9.9,14.25a5.68,5.68,0,0,0,2.15.26c1.54-5.33,4.93-10.35,8.84-12.63a7.47,7.47,0,0,1,3.59-1.1,4.27,4.27,0,0,1,2.12.55c1.88,1.09,3,3.74,3,7.26a14.5,14.5,0,0,1-.1,1.74l2.05,1.19a19.56,19.56,0,0,0,.22-2.93C312.53,273.45,311.05,270.12,308.47,268.63Z" style="fill:#263238"></path><path d="M272,269.42c-1.61.94-1.61,2.46,0,3.4a6.44,6.44,0,0,0,5.86,0c1.62-.94,1.62-2.46,0-3.4A6.44,6.44,0,0,0,272,269.42Z" style="opacity:0.1"></path><path d="M290.82,258.44c-2.23-1.29-5-1.09-7.88.55-4.42,2.56-8.24,8.27-9.91,14.25a5.76,5.76,0,0,0,2.16.26c1.54-5.33,4.92-10.35,8.84-12.63a7.44,7.44,0,0,1,3.59-1.1,4.23,4.23,0,0,1,2.11.55c1.89,1.09,3,3.74,3,7.26a14.5,14.5,0,0,1-.1,1.74l2.06,1.19a21,21,0,0,0,.22-2.93C294.88,263.26,293.4,259.93,290.82,258.44Z" style="fill:#263238"></path><path d="M254.35,259.23c-1.61.93-1.61,2.46,0,3.39a6.44,6.44,0,0,0,5.86,0c1.62-.93,1.62-2.46,0-3.39A6.44,6.44,0,0,0,254.35,259.23Z" style="opacity:0.1"></path><path d="M273.17,248.25c-2.23-1.29-5-1.09-7.88.55-4.42,2.56-8.24,8.27-9.91,14.25a6,6,0,0,0,2.16.26c1.54-5.33,4.93-10.36,8.84-12.63a7.33,7.33,0,0,1,3.59-1.1,4.2,4.2,0,0,1,2.11.55c1.89,1.08,3,3.74,3,7.26a14.34,14.34,0,0,1-.1,1.73l2.06,1.19a20.83,20.83,0,0,0,.22-2.92C277.23,253.07,275.75,249.74,273.17,248.25Z" style="fill:#263238"></path><path d="M236.7,249c-1.61.94-1.61,2.46,0,3.39a6.42,6.42,0,0,0,5.85,0c1.63-.93,1.63-2.45,0-3.39A6.42,6.42,0,0,0,236.7,249Z" style="opacity:0.1"></path><path d="M255.52,238.06c-2.24-1.29-5-1.09-7.88.55-4.42,2.56-8.24,8.27-9.91,14.25a6,6,0,0,0,2.16.26c1.53-5.33,4.92-10.36,8.83-12.63a7.37,7.37,0,0,1,3.6-1.1,4.26,4.26,0,0,1,2.11.55c1.88,1.09,3,3.74,3,7.26a14.34,14.34,0,0,1-.1,1.73l2.05,1.19a19.43,19.43,0,0,0,.22-2.92C259.57,242.88,258.09,239.55,255.52,238.06Z" style="fill:#263238"></path><path d="M288.43,408.73a4.76,4.76,0,0,1-2.36-.6L275.36,402a2,2,0,0,1-1.17-1.68,1.62,1.62,0,0,1,.91-1.4L376.41,340.4a4.68,4.68,0,0,1,4.24.15l10.71,6.19a2,2,0,0,1,1.18,1.68,1.63,1.63,0,0,1-.92,1.4L290.31,408.29A3.76,3.76,0,0,1,288.43,408.73Zm89.85-67.68a2.68,2.68,0,0,0-1.32.3L275.65,399.82c-.14.08-.37.24-.37.45s.17.47.63.74l10.71,6.18a3.59,3.59,0,0,0,3.15.15l101.31-58.47c.13-.08.36-.24.36-.45s-.16-.47-.63-.74L380.1,341.5A3.83,3.83,0,0,0,378.28,341.05Z" style="fill:#e0e0e0"></path><rect x="273.01" y="373.87" width="120.93" height="1.09" transform="matrix(0.87, -0.5, 0.5, 0.87, -142.53, 216.92)" style="fill:#e0e0e0"></rect><path d="M265.66,395.58a4.86,4.86,0,0,1-2.36-.59L123.93,314.52a2,2,0,0,1-1.18-1.68,1.63,1.63,0,0,1,.92-1.4L225,253a4.62,4.62,0,0,1,4.24.16l139.37,80.46a2,2,0,0,1,1.18,1.68,1.63,1.63,0,0,1-.92,1.4L267.54,395.14A3.76,3.76,0,0,1,265.66,395.58Zm-38.81-142a2.75,2.75,0,0,0-1.33.3L124.21,312.39c-.13.08-.36.24-.36.45s.16.47.63.74L263.85,394a3.53,3.53,0,0,0,3.14.15l101.32-58.47c.13-.08.36-.24.36-.45s-.17-.46-.63-.73L228.67,254.07A3.83,3.83,0,0,0,226.85,253.62Z" style="fill:#e0e0e0"></path><rect x="250.24" y="360.72" width="120.93" height="1.09" transform="translate(-139 203.75) rotate(-30)" style="fill:#e0e0e0"></rect><rect x="243.07" y="356.58" width="120.93" height="1.09" transform="translate(-137.89 199.6) rotate(-30)" style="fill:#e0e0e0"></rect><rect x="235.89" y="352.43" width="120.93" height="1.09" transform="translate(-136.78 195.45) rotate(-30)" style="fill:#e0e0e0"></rect><rect x="228.72" y="348.29" width="120.93" height="1.09" transform="translate(-135.67 191.32) rotate(-30)" style="fill:#e0e0e0"></rect><rect x="221.54" y="344.15" width="120.93" height="1.09" transform="translate(-134.55 187.14) rotate(-29.99)" style="fill:#e0e0e0"></rect><rect x="214.36" y="340.01" width="120.93" height="1.09" transform="translate(-133.45 183.03) rotate(-30)" style="fill:#e0e0e0"></rect><rect x="207.19" y="335.86" width="120.93" height="1.09" transform="translate(-132.35 178.91) rotate(-30)" style="fill:#e0e0e0"></rect><rect x="200.01" y="331.72" width="120.93" height="1.09" transform="translate(-131.23 174.75) rotate(-30)" style="fill:#e0e0e0"></rect><rect x="192.84" y="327.58" width="120.93" height="1.09" transform="translate(-130.12 170.61) rotate(-30)" style="fill:#e0e0e0"></rect><rect x="185.66" y="323.43" width="120.93" height="1.09" transform="translate(-129.02 166.48) rotate(-30)" style="fill:#e0e0e0"></rect><rect x="178.49" y="319.29" width="120.93" height="1.09" transform="translate(-127.89 162.29) rotate(-29.99)" style="fill:#e0e0e0"></rect><rect x="171.31" y="315.15" width="120.93" height="1.09" transform="translate(-126.79 158.18) rotate(-30)" style="fill:#e0e0e0"></rect><rect x="164.14" y="311.01" width="120.93" height="1.09" transform="translate(-125.68 154.03) rotate(-30)" style="fill:#e0e0e0"></rect><rect x="156.96" y="306.86" width="120.93" height="1.09" transform="translate(-124.58 149.91) rotate(-30)" style="fill:#e0e0e0"></rect><rect x="149.78" y="302.72" width="120.93" height="1.09" transform="translate(-123.46 145.75) rotate(-30)" style="fill:#e0e0e0"></rect><rect x="142.61" y="298.58" width="120.93" height="1.09" transform="translate(-122.35 141.61) rotate(-30)" style="fill:#e0e0e0"></rect><rect x="135.43" y="294.44" width="120.93" height="1.09" transform="translate(-121.24 137.46) rotate(-30)" style="fill:#e0e0e0"></rect><rect x="128.26" y="290.29" width="120.93" height="1.09" transform="translate(-120.12 133.3) rotate(-29.99)" style="fill:#e0e0e0"></rect><rect x="121.08" y="286.15" width="120.93" height="1.09" transform="translate(-119.02 129.18) rotate(-30)" style="fill:#e0e0e0"></rect><path d="M365,338.82a.57.57,0,0,1-.28-.08L221.39,256a.53.53,0,0,1-.2-.75.54.54,0,0,1,.74-.2L365.26,337.8a.54.54,0,0,1,.2.74A.53.53,0,0,1,365,338.82Z" style="fill:#0D6EFD"></path></g></g><g id="freepik--light-bulb--inject-10"><g id="freepik--Bulb--inject-10"><g id="freepik--bulb--inject-10"><g id="freepik--Socket--inject-10"><path d="M295.69,228.59c-3.87-2.73-3.52-6.56.78-8.54a16.41,16.41,0,0,1,14.81,1.36c3.87,2.74,3.51,6.56-.79,8.55A16.42,16.42,0,0,1,295.69,228.59Z" style="fill:#263238"></path><path d="M313.19,227.89l-1.69-.16a5.25,5.25,0,0,0-2-2.35,13.33,13.33,0,0,0-12-1.11,5.31,5.31,0,0,0-2.38,1.95l-1.69-.15,1.66,3.26h0a5.62,5.62,0,0,0,1.76,1.89,13.39,13.39,0,0,0,12,1.11,5.72,5.72,0,0,0,2.07-1.54h0Z" style="fill:#263238"></path><path d="M292.4,225.51c-5.72-4.06-5.18-9.72,1.19-12.63s16.17-2,21.89,2.07,5.17,9.72-1.2,12.63S298.11,229.57,292.4,225.51Z" style="fill:#455a64"></path><path d="M292.18,223.42c-5.92-4.21-5.36-10.07,1.25-13.1s16.77-2.06,22.69,2.15,5.37,10.08-1.24,13.1S298.11,227.64,292.18,223.42Z" style="fill:#37474f"></path><path d="M292.11,221.12c-6.07-4.32-5.5-10.34,1.28-13.44s17.19-2.11,23.27,2.21,5.5,10.33-1.28,13.43S298.19,225.43,292.11,221.12Z" style="fill:#455a64"></path><path d="M292,218.81c-6.22-4.43-5.64-10.59,1.31-13.77s17.62-2.17,23.84,2.26,5.64,10.59-1.3,13.77S298.27,223.23,292,218.81Z" style="fill:#37474f"></path><path d="M292,216.5c-6.37-4.54-5.77-10.85,1.34-14.1s18-2.22,24.42,2.31,5.77,10.85-1.34,14.1S298.35,221,292,216.5Z" style="fill:#455a64"></path><path d="M291.9,214.19c-6.52-4.64-5.91-11.1,1.37-14.43s18.47-2.27,25,2.37,5.91,11.09-1.37,14.43S298.42,218.83,291.9,214.19Z" style="fill:#37474f"></path></g><path d="M324.44,200.77c.25-2.73-1.3-5.63-4.71-8.05-6.83-4.86-18.54-6-26.15-2.48-3.81,1.74-5.88,4.3-6.13,7-.1,1.06-.5,5.22-.6,6.28-.26,2.74,1.29,5.64,4.71,8.06,6.83,4.86,18.54,6,26.16,2.48,3.8-1.74,5.87-4.3,6.12-7C323.94,206,324.34,201.84,324.44,200.77Z" style="fill:#0D6EFD"></path><path d="M317.91,72.77A55.87,55.87,0,0,0,257,123.12c-4.19,44.15,31.55,54.94,29.86,72.73-.26,2.84,1.34,5.85,4.88,8.37,7.09,5,19.24,6.19,27.14,2.57,4-1.81,6.09-4.47,6.36-7.3h0c1.69-17.8,38.82-21.68,43-65.83A55.87,55.87,0,0,0,317.91,72.77Z" style="fill:#0D6EFD"></path><path d="M317.91,72.77A55.87,55.87,0,0,0,257,123.12c-4.19,44.15,31.55,54.94,29.86,72.73-.26,2.84,1.34,5.85,4.88,8.37,7.09,5,19.24,6.19,27.14,2.57,4-1.81,6.09-4.47,6.36-7.3h0c1.69-17.8,38.82-21.68,43-65.83A55.87,55.87,0,0,0,317.91,72.77Z" style="fill:#fff;mix-blend-mode:screen;opacity:0.9"></path><path d="M294.1,203.24c-5.93-4.21-5.37-10.07,1.24-13.1s16.77-2.06,22.69,2.15,5.37,10.08-1.24,13.11S300,207.46,294.1,203.24Z" style="fill:#0D6EFD"></path><path d="M294.1,203.24c-5.93-4.21-5.37-10.07,1.24-13.1s16.77-2.06,22.69,2.15,5.37,10.08-1.24,13.11S300,207.46,294.1,203.24Z" style="fill:#fff;opacity:0.55"></path><path d="M319.7,203.58a12.29,12.29,0,0,1-2.91,1.82c-6.61,3-16.77,2.06-22.69-2.15a12.39,12.39,0,0,1-2.51-2.33,12.1,12.1,0,0,1,2.9-1.82c6.61-3,16.78-2.07,22.7,2.15A12.1,12.1,0,0,1,319.7,203.58Z" style="fill:#0D6EFD;opacity:0.25"></path><path d="M319.7,203.58a12.29,12.29,0,0,1-2.91,1.82c-6.61,3-16.77,2.06-22.69-2.15a12.39,12.39,0,0,1-2.51-2.33,12.1,12.1,0,0,1,2.9-1.82c6.61-3,16.78-2.07,22.7,2.15A12.1,12.1,0,0,1,319.7,203.58Z" style="fill:#0D6EFD"></path><path d="M319.7,203.58a12.29,12.29,0,0,1-2.91,1.82c-6.61,3-16.77,2.06-22.69-2.15a12.39,12.39,0,0,1-2.51-2.33,12.1,12.1,0,0,1,2.9-1.82c6.61-3,16.78-2.07,22.7,2.15A12.1,12.1,0,0,1,319.7,203.58Z" style="fill:#fff;opacity:0.35000000000000003"></path><path d="M358.86,106.16c-3-5.61-8-10.44-14.78-8.26a8.6,8.6,0,0,0-2.06,1,8.23,8.23,0,0,0-3.42,7.32c.28,5.46,5.14,9.3,7.74,13.77a48.13,48.13,0,0,1,5.82,15.85,29.52,29.52,0,0,0,1.3,5.94,4.37,4.37,0,0,0,5.36,2.39c2.27-.94,3.65-3.54,4.15-5.63C366,126.1,364.29,116.45,358.86,106.16ZM356,147.54a4.57,4.57,0,0,0-4.8,2.73,6.15,6.15,0,0,0,.11,5,3.58,3.58,0,0,0,4.78,1.57,5.8,5.8,0,0,0,3.1-4.56C359.36,150.27,358.25,148,356,147.54Z" style="fill:#fff;opacity:0.35000000000000003"></path><path d="M312,203.93l-.64-.06c1.87-19.79,4.2-32.09,7.78-41.11a40,40,0,0,1,3.37-6.69,34.58,34.58,0,0,1-11.73-8.5,34.46,34.46,0,0,1-13.11,6.15,38.51,38.51,0,0,1,2.05,7.2c1.83,9.53,1.8,22.05-.07,41.84l-.65-.06c1.87-19.73,1.9-32.19.09-41.66a38.18,38.18,0,0,0-2.08-7.2,16.29,16.29,0,0,1-1.89.24c-6.57.47-10.16-1.75-11.33-4a4.23,4.23,0,0,1,.57-4.77A4.3,4.3,0,0,1,289,144c2.77.69,6.07,3.46,8.48,9.11a33.56,33.56,0,0,0,12.95-6,15,15,0,0,1-1.64-2.38c-2.59-4.88-2-8.85-.65-10.93a4.48,4.48,0,0,1,7.95.76c1,2.3.78,6.3-2.69,10.61a14.72,14.72,0,0,1-2.06,2,33.62,33.62,0,0,0,11.59,8.35c3.43-5.09,7.19-7.19,10-7.35a4.31,4.31,0,0,1,4.26,2.15,4.24,4.24,0,0,1-.34,4.8c-1.57,2-5.52,3.48-11.88,1.79-.6-.16-1.2-.36-1.81-.59a37.32,37.32,0,0,0-3.39,6.68C316.22,172,313.9,184.2,312,203.93Zm11.51-48.16c.54.2,1.08.37,1.61.51,6.06,1.61,9.76.25,11.2-1.57a3.54,3.54,0,0,0,.27-4.08,3.66,3.66,0,0,0-3.64-1.82C330.43,149,326.85,151,323.54,155.77ZM288.05,144.5a3.5,3.5,0,0,0-3.16,1.23,3.55,3.55,0,0,0-.5,4.06c1.07,2.05,4.46,4.09,10.71,3.65a16.75,16.75,0,0,0,1.68-.21c-2.35-5.35-5.49-8-8-8.6A5.39,5.39,0,0,0,288.05,144.5Zm24.21-12.15a3.79,3.79,0,0,0-3.61,1.78c-1.61,2.42-1.34,6.45.69,10.27a14.09,14.09,0,0,0,1.56,2.28,13.89,13.89,0,0,0,2-2c2.71-3.37,3.73-7.27,2.6-9.95A3.77,3.77,0,0,0,312.26,132.35Z" style="fill:#455a64"></path></g><path d="M317.58,60.32a1.68,1.68,0,0,1-1.56-1.8l1.16-16.68a1.68,1.68,0,1,1,3.36.24l-1.16,16.68A1.69,1.69,0,0,1,317.58,60.32Z" style="fill:#f0f0f0"></path><path d="M352.18,72.36a1.73,1.73,0,0,1-.83-.29,1.67,1.67,0,0,1-.45-2.33l9.35-13.86A1.68,1.68,0,1,1,363,57.76l-9.35,13.86A1.7,1.7,0,0,1,352.18,72.36Z" style="fill:#f0f0f0"></path><path d="M376.12,100.08a1.68,1.68,0,0,1-.62-3.19l15-7.33a1.68,1.68,0,0,1,1.47,3l-15,7.32A1.64,1.64,0,0,1,376.12,100.08Z" style="fill:#f0f0f0"></path><path d="M399.67,137.23,383,136.06a1.68,1.68,0,1,1,.24-3.35l16.68,1.16a1.68,1.68,0,1,1-.24,3.36Z" style="fill:#f0f0f0"></path><path d="M384.81,180a1.71,1.71,0,0,1-.82-.28l-13.86-9.35a1.68,1.68,0,0,1,1.88-2.79l13.86,9.35a1.68,1.68,0,0,1-1.06,3.07Z" style="fill:#f0f0f0"></path><path d="M233.68,169a1.68,1.68,0,0,1-.62-3.19l15-7.33a1.68,1.68,0,1,1,1.47,3l-15,7.33A1.7,1.7,0,0,1,233.68,169Z" style="fill:#f0f0f0"></path><path d="M241.83,125.73l-16.68-1.17a1.68,1.68,0,1,1,.24-3.35l16.68,1.16a1.68,1.68,0,1,1-.24,3.36Z" style="fill:#f0f0f0"></path><path d="M253.87,91.13a1.68,1.68,0,0,1-.82-.28L239.19,81.5a1.68,1.68,0,1,1,1.88-2.79l13.86,9.35a1.68,1.68,0,0,1-1.06,3.07Z" style="fill:#f0f0f0"></path><path d="M281.6,67.19a1.69,1.69,0,0,1-1.4-.94l-7.33-15a1.68,1.68,0,0,1,3-1.47l7.33,15a1.68,1.68,0,0,1-.78,2.25A1.61,1.61,0,0,1,281.6,67.19Z" style="fill:#f0f0f0"></path></g></g><g id="freepik--Shapes--inject-10"><g id="freepik--abstract-forms--inject-10"><path d="M261.69,346.33c-8.37-4.56-18.39-5.43-27.79-3.89s-18.28,5.34-26.75,9.69c-3.28,1.69-7,3.51-10.49,2.37s-5.65-5.31-5.32-9.09,2.53-7.16,5.15-9.9c9.61-10.05,25.41-13.73,38.61-9.35,11.64,3.85,20.21,11.47,26.59,20.17" style="fill:#0D6EFD"></path><path d="M261.69,346.33c-8.37-4.56-18.39-5.43-27.79-3.89s-18.28,5.34-26.75,9.69c-3.28,1.69-7,3.51-10.49,2.37s-5.65-5.31-5.32-9.09,2.53-7.16,5.15-9.9c9.61-10.05,25.41-13.73,38.61-9.35,11.64,3.85,20.21,11.47,26.59,20.17" style="fill:#fff;opacity:0.6000000000000001"></path><path d="M207.06,318.38a22.15,22.15,0,0,1,5.51-.39c.84.05,1.64.23,2.48.35a17,17,0,0,1,2.64.57,6.64,6.64,0,0,0-1.12-1.31,16.66,16.66,0,0,0-4.14-3.08,40,40,0,0,0-15.78-4.64,37.86,37.86,0,0,0-10.93.74c-4.73,1-9.58,3.24-12,7.47-1.11,2-1.58,4.48-.52,6.48a6.21,6.21,0,0,0,4.16,2.95,12.71,12.71,0,0,0,5.21-.1c4.28-.83,8.28-2.68,12.23-4.52S202.78,319.21,207.06,318.38Z" style="fill:#0D6EFD"></path><path d="M207.06,318.38a22.15,22.15,0,0,1,5.51-.39c.84.05,1.64.23,2.48.35a17,17,0,0,1,2.64.57,6.64,6.64,0,0,0-1.12-1.31,16.66,16.66,0,0,0-4.14-3.08,40,40,0,0,0-15.78-4.64,37.86,37.86,0,0,0-10.93.74c-4.73,1-9.58,3.24-12,7.47-1.11,2-1.58,4.48-.52,6.48a6.21,6.21,0,0,0,4.16,2.95,12.71,12.71,0,0,0,5.21-.1c4.28-.83,8.28-2.68,12.23-4.52S202.78,319.21,207.06,318.38Z" style="fill:#fff;opacity:0.35000000000000003"></path><path d="M204.11,301.25c7.44,6.91,15.91,11.11,25.23,14.7-5.35-5.68-8.8-12.62-11.52-19.86s-3.54-15-4.88-22.63c-.75-4.31-2.15-8.65-5.07-11.9s-7.61-5.18-11.78-3.88c-3.65,1.15-6.27,4.57-7.25,8.27a22.73,22.73,0,0,0,.42,11.34C191.64,286.61,197.07,294.7,204.11,301.25Z" style="fill:#0D6EFD"></path><g style="opacity:0.2"><path d="M204.11,301.25c7.44,6.91,15.91,11.11,25.23,14.7-5.35-5.68-8.8-12.62-11.52-19.86s-3.54-15-4.88-22.63c-.75-4.31-2.15-8.65-5.07-11.9s-7.61-5.18-11.78-3.88c-3.65,1.15-6.27,4.57-7.25,8.27a22.73,22.73,0,0,0,.42,11.34C191.64,286.61,197.07,294.7,204.11,301.25Z" style="fill:#fff"></path></g><path d="M195.45,255.14a14,14,0,0,0-8.38,9c-.21.73-.52,1.62-1.27,1.73s-1.4-.9-1.52-1.76C183.38,257.4,190.57,255.24,195.45,255.14Z" style="fill:#0D6EFD"></path><path d="M298.23,313.09c-8.92,6.51-17.65,15.56-20.73,26.49-3.09-17.75,2.55-37.37,12.43-52.13,9.52-14.23,27.2-27.39,45.17-20.07,4.58,1.86,8.44,6,8.89,11,.4,4.36-1.87,8.61-5,11.63s-7.15,5-11.09,6.9C317.71,301.76,307.34,306.43,298.23,313.09Z" style="fill:#0D6EFD"></path><path d="M298.23,313.09c-8.92,6.51-17.65,15.56-20.73,26.49-3.09-17.75,2.55-37.37,12.43-52.13,9.52-14.23,27.2-27.39,45.17-20.07,4.58,1.86,8.44,6,8.89,11,.4,4.36-1.87,8.61-5,11.63s-7.15,5-11.09,6.9C317.71,301.76,307.34,306.43,298.23,313.09Z" style="fill:#fff;opacity:0.35000000000000003"></path><path d="M264.18,247.84c.45,7.52,4.06,16.51,6.05,22.34,3,8.75,5.8,18.18,3.41,27.12,6.32-8.15,12.31-17.46,15.11-27.46,2.93-10.51,2.6-22.49-5.42-30.81-5.23-5.42-16.09-5.82-18.59,2.6A18.3,18.3,0,0,0,264.18,247.84Z" style="fill:#0D6EFD"></path><path d="M264.18,247.84c.45,7.52,4.06,16.51,6.05,22.34,3,8.75,5.8,18.18,3.41,27.12,6.32-8.15,12.31-17.46,15.11-27.46,2.93-10.51,2.6-22.49-5.42-30.81-5.23-5.42-16.09-5.82-18.59,2.6A18.3,18.3,0,0,0,264.18,247.84Z" style="fill:#fff;opacity:0.6000000000000001"></path><path d="M330.2,256.81a14.22,14.22,0,0,0-8,.75,14,14,0,0,0-6.77,6c2.69-1.54,6.91-2.87,13.92-1.87,6.72.95,10.72,4.12,12.14,5.85-.12-3.35-2.79-6.9-5.66-8.62A17.11,17.11,0,0,0,330.2,256.81Z" style="fill:#0D6EFD"></path></g></g><g id="freepik--text-icon--inject-10"><g id="freepik--speech-bubble--inject-10"><g id="freepik--speech-bubble--inject-10"><path d="M382.31,277l1.66-5.9c-.73-3.38,13.07,4.59,13.8,8l-4.45,12a1.9,1.9,0,0,1-.75.87c-1,.6-7.56,4.34-7.88,4.53a1.93,1.93,0,0,1-2.84-1.05l-5.76-19.76C375.73,274,378.91,275.07,382.31,277Z" style="fill:#37474f"></path><path d="M366.55,194.84,419,225.11a3.9,3.9,0,0,1,1.77,3.07v62.17a3.86,3.86,0,0,1-1.78,3L412.77,297a4,4,0,0,1-3.56,0l-52.47-30.27a3.9,3.9,0,0,1-1.77-3.07V201.42a3.9,3.9,0,0,1,1.78-3.06l6.24-3.54A4,4,0,0,1,366.55,194.84Z" style="fill:#37474f"></path><path d="M356.74,200.39l52.47,30.27a3.93,3.93,0,0,1,1.78,3.07v62.18c0,1.13-.8,1.59-1.78,1l-20.08-11.58-3.69,10.23a1.92,1.92,0,0,1-3.59-.18L377,278.32l-20.21-11.66a3.9,3.9,0,0,1-1.77-3.07V201.42C355,200.29,355.76,199.83,356.74,200.39Z" style="fill:#fafafa"></path><path d="M356,201a.78.78,0,0,1,.36.12l52.47,30.27a3,3,0,0,1,1.34,2.32v62.18c0,.27-.07.38-.12.4a.73.73,0,0,1-.36-.13L389.56,284.6l-.89-.52-.35,1-3.68,10.2a1.06,1.06,0,0,1-2-.09l-4.9-17.08-.1-.34-.3-.17-20.21-11.66a3.06,3.06,0,0,1-1.34-2.32V201.42c0-.27.07-.39.09-.4h0m0-.87c-.58,0-1,.47-1,1.27v62.17a3.9,3.9,0,0,0,1.77,3.07L377,278.32l4.9,17.08a1.89,1.89,0,0,0,1.84,1.33,1.87,1.87,0,0,0,1.75-1.15l3.69-10.23,20.08,11.58a1.69,1.69,0,0,0,.79.24c.59,0,1-.46,1-1.26V233.73a3.93,3.93,0,0,0-1.78-3.07l-52.47-30.27a1.62,1.62,0,0,0-.79-.24Z" style="fill:#37474f"></path><path d="M355,201.1c.14-.9.87-1.22,1.76-.71l52.46,30.27a3.65,3.65,0,0,1,1.25,1.33l9.78-5.62A3.55,3.55,0,0,0,419,225.1l-52.47-30.27a4,4,0,0,0-3.56,0l-6.24,3.54A4,4,0,0,0,355,201.1Z" style="fill:#455a64"></path></g><path d="M367.82,220.19v15.16l1.38.77v-4.78c0-2.58,2.1-3.46,4.68-2l6.44,3.71v27.35c0,3-1.83,4.35-4.09,3.05l-4-2.33v1.65l21.88,12.63V273.8l-4-2.33c-2.26-1.3-4.09-4.78-4.09-7.77V236.35l6.44,3.72c2.59,1.49,4.68,4.79,4.68,7.37v4.78l1.38.82V237.88Z" style="fill:#455a64"></path></g></g></svg>