<svg width="88" height="64" viewBox="0 0 88 64" fill="none" xmlns="http://www.w3.org/2000/svg">
<path d="M5.12 15.2H13.184V44.512H25.6V52H12.416L5.12 47.648V15.2ZM49.216 15.2H41.152V44.512H28.736V52H41.984L49.216 47.648V15.2Z" fill="white"/>
<path d="M5.12 15.2V14.2H4.12V15.2H5.12ZM13.184 15.2H14.184V14.2H13.184V15.2ZM13.184 44.512H12.184V45.512H13.184V44.512ZM25.6 44.512H26.6V43.512H25.6V44.512ZM25.6 52V53H26.6V52H25.6ZM12.416 52L11.9037 52.8588L12.1404 53H12.416V52ZM5.12 47.648H4.12V48.2159L4.60772 48.5068L5.12 47.648ZM49.216 15.2H50.216V14.2H49.216V15.2ZM41.152 15.2V14.2H40.152V15.2H41.152ZM41.152 44.512V45.512H42.152V44.512H41.152ZM28.736 44.512V43.512H27.736V44.512H28.736ZM28.736 52H27.736V53H28.736V52ZM41.984 52V53H42.2617L42.4996 52.8568L41.984 52ZM49.216 47.648L49.7316 48.5048L50.216 48.2133V47.648H49.216ZM5.12 16.2H13.184V14.2H5.12V16.2ZM12.184 15.2V44.512H14.184V15.2H12.184ZM13.184 45.512H25.6V43.512H13.184V45.512ZM24.6 44.512V52H26.6V44.512H24.6ZM25.6 51H12.416V53H25.6V51ZM12.9283 51.1412L5.63228 46.7892L4.60772 48.5068L11.9037 52.8588L12.9283 51.1412ZM6.12 47.648V15.2H4.12V47.648H6.12ZM49.216 14.2H41.152V16.2H49.216V14.2ZM40.152 15.2V44.512H42.152V15.2H40.152ZM41.152 43.512H28.736V45.512H41.152V43.512ZM27.736 44.512V52H29.736V44.512H27.736ZM28.736 53H41.984V51H28.736V53ZM42.4996 52.8568L49.7316 48.5048L48.7004 46.7912L41.4684 51.1432L42.4996 52.8568ZM50.216 47.648V15.2H48.216V47.648H50.216Z" fill="url(#paint0_linear_2_5)"/>
<path d="M41.4 15.2H62.136V22.432H49.72V29.984H62.136V37.472H49.72V52H41.4V15.2ZM85.752 33.12V19.616L78.264 15.2H65.016V22.432H77.432V29.984H65.016V37.472H78.264L85.752 33.12Z" fill="white"/>
<path d="M41.4 15.2V14.2H40.4V15.2H41.4ZM62.136 15.2H63.136V14.2H62.136V15.2ZM62.136 22.432V23.432H63.136V22.432H62.136ZM49.72 22.432V21.432H48.72V22.432H49.72ZM49.72 29.984H48.72V30.984H49.72V29.984ZM62.136 29.984H63.136V28.984H62.136V29.984ZM62.136 37.472V38.472H63.136V37.472H62.136ZM49.72 37.472V36.472H48.72V37.472H49.72ZM49.72 52V53H50.72V52H49.72ZM41.4 52H40.4V53H41.4V52ZM85.752 33.12L86.2545 33.9846L86.752 33.6954V33.12H85.752ZM85.752 19.616H86.752V19.0448L86.26 18.7546L85.752 19.616ZM78.264 15.2L78.772 14.3386L78.5369 14.2H78.264V15.2ZM65.016 15.2V14.2H64.016V15.2H65.016ZM65.016 22.432H64.016V23.432H65.016V22.432ZM77.432 22.432H78.432V21.432H77.432V22.432ZM77.432 29.984V30.984H78.432V29.984H77.432ZM65.016 29.984V28.984H64.016V29.984H65.016ZM65.016 37.472H64.016V38.472H65.016V37.472ZM78.264 37.472V38.472H78.5335L78.7665 38.3366L78.264 37.472ZM41.4 16.2H62.136V14.2H41.4V16.2ZM61.136 15.2V22.432H63.136V15.2H61.136ZM62.136 21.432H49.72V23.432H62.136V21.432ZM48.72 22.432V29.984H50.72V22.432H48.72ZM49.72 30.984H62.136V28.984H49.72V30.984ZM61.136 29.984V37.472H63.136V29.984H61.136ZM62.136 36.472H49.72V38.472H62.136V36.472ZM48.72 37.472V52H50.72V37.472H48.72ZM49.72 51H41.4V53H49.72V51ZM42.4 52V15.2H40.4V52H42.4ZM86.752 33.12V19.616H84.752V33.12H86.752ZM86.26 18.7546L78.772 14.3386L77.756 16.0614L85.244 20.4774L86.26 18.7546ZM78.264 14.2H65.016V16.2H78.264V14.2ZM64.016 15.2V22.432H66.016V15.2H64.016ZM65.016 23.432H77.432V21.432H65.016V23.432ZM76.432 22.432V29.984H78.432V22.432H76.432ZM77.432 28.984H65.016V30.984H77.432V28.984ZM64.016 29.984V37.472H66.016V29.984H64.016ZM65.016 38.472H78.264V36.472H65.016V38.472ZM78.7665 38.3366L86.2545 33.9846L85.2495 32.2554L77.7615 36.6074L78.7665 38.3366Z" fill="url(#paint1_linear_2_5)"/>
<defs>
<linearGradient id="paint0_linear_2_5" x1="89.5" y1="7" x2="-6.01401e-06" y2="52" gradientUnits="userSpaceOnUse">
<stop stop-color="#0003FF"/>
<stop offset="1" stop-color="#FF0000"/>
</linearGradient>
<linearGradient id="paint1_linear_2_5" x1="-0.499997" y1="52" x2="88" y2="1.05759e-06" gradientUnits="userSpaceOnUse">
<stop stop-color="#FF0000"/>
<stop offset="1" stop-color="#0003FF"/>
</linearGradient>
</defs>
</svg>
